<?xml version="1.0" standalone="no"?>
<!DOCTYPE svg PUBLIC "-//W3C//DTD SVG 1.1//EN" "http://www.w3.org/Graphics/SVG/1.1/DTD/svg11.dtd" >
<svg xmlns="http://www.w3.org/2000/svg">
<metadata></metadata>
<defs>
<font id="kontanterbold" horiz-adv-x="1652" >
<font-face units-per-em="2048" ascent="1638" descent="-410" />
<missing-glyph horiz-adv-x="614" />
<glyph horiz-adv-x="0" />
<glyph unicode="&#xd;" horiz-adv-x="1024" />
<glyph unicode=" "  horiz-adv-x="614" />
<glyph unicode="&#x09;" horiz-adv-x="614" />
<glyph unicode="&#xa0;" horiz-adv-x="614" />
<glyph unicode="!" horiz-adv-x="520" d="M102 0h316v315h-316v-315zM102 473h316v1106h-316v-1106z" />
<glyph unicode="&#x26;" horiz-adv-x="1568" d="M82 0h739l133 231l199 -231h416l-449 522l64 109h180v317h-365l-96 -172l-321 375q24 48 87 80.5t140 32.5q96 0 166 -47q69 -49 69 -111h316q0 99 -46 189t-128 157q-161 127 -377 127q-218 0 -379 -127q-82 -67 -128 -157t-46 -189v-59l129 -152l-303 -580v-315z M432 315l172 326l131 -154l-98 -172h-205z" />
<glyph unicode="+" horiz-adv-x="1110" d="M82 631h315v-316h316v316h315v317h-315v316h-316v-316h-315v-317z" />
<glyph unicode="," horiz-adv-x="479" d="M123 233v-473h199l116 473h-315z" />
<glyph unicode="-" horiz-adv-x="954" d="M82 631h790v317h-790v-317z" />
<glyph unicode="." horiz-adv-x="561" d="M123 0h315v315h-315v-315z" />
<glyph unicode="/" horiz-adv-x="1316" d="M0 0h352l965 1579h-352z" />
<glyph unicode="0" horiz-adv-x="1507" d="M123 432q0 -140 92 -250t234.5 -166.5t304.5 -56.5q166 0 309 58t232 167.5t89 247.5v715q0 140 -91.5 250t-234 166.5t-304.5 56.5q-166 0 -309 -57.5t-232.5 -167t-89.5 -248.5v-715zM438 432v199h631v-199q0 -44 -52.5 -81.5t-124 -57t-138.5 -19.5q-72 0 -144 20 t-122 57t-50 81zM438 948v199q0 44 52.5 81.5t124.5 57t139 19.5q72 0 144 -20t121.5 -57t49.5 -81v-199h-631z" />
<glyph unicode="1" horiz-adv-x="835" d="M102 0h631v315h-158v158h158v315h-158v791h-473v-315h158v-476h-158v-315h158v-158h-158v-315z" />
<glyph unicode="2" horiz-adv-x="1445" d="M82 1110h315q0 64 53.5 110.5t123 65.5t139.5 19q98 0 175 -36.5t105 -111.5l-907 -1157h1257v315h-604l604 777v55q0 139 -90.5 249t-233 167t-306.5 57q-125 0 -238 -34t-201 -96.5t-140 -161t-52 -218.5z" />
<glyph unicode="3" horiz-adv-x="1445" d="M82 432q0 -140 92 -250t234.5 -166.5t304.5 -56.5q166 0 309 58t232 167.5t89 247.5v516h-473l473 631h-1200v-315h611l-473 -611h747v-221q0 -44 -52.5 -81.5t-124 -57t-138.5 -19.5q-72 0 -144 20t-122 57t-50 81h-315z" />
<glyph unicode="4" horiz-adv-x="1490" d="M0 315h893v-315h315v315h201v316h-823l624 948h-379z" />
<glyph unicode="5" horiz-adv-x="1466" d="M102 432q0 -140 92 -250t234.5 -166.5t304.5 -56.5q123 0 237.5 34.5t202 95t139.5 150t52 193.5v62l-764 770h703v315h-1160v-307l885 -891q-45 -53 -125.5 -80t-169.5 -27q-72 0 -144 20t-121.5 57t-49.5 81v346h-316v-346z" />
<glyph unicode="6" horiz-adv-x="1507" d="M123 432q0 -104 53 -194t141 -150.5t201.5 -94.5t235.5 -34q166 0 309 58t232 167.5t89 247.5v612h-946v220h905v315h-1220v-1147zM438 432v295h631v-295q0 -44 -52.5 -81.5t-124 -57t-138.5 -19.5q-72 0 -144 20t-122 57t-50 81z" />
<glyph unicode="7" horiz-adv-x="1425" d="M82 969h315v295h527l-607 -1264h351l757 1579h-1343v-610z" />
<glyph unicode="8" horiz-adv-x="1466" d="M102 432q0 -104 53 -194t141 -150.5t201.5 -94.5t235.5 -34q123 0 237.5 34.5t202 95t139.5 150t52 193.5v84l-346 272l346 275v84q0 139 -90.5 249t-233.5 167t-307 57q-166 0 -309 -57.5t-232.5 -167t-89.5 -248.5v-84l347 -275l-347 -272v-84zM451 369l282 190 l283 -190q-48 -48 -126.5 -71.5t-156.5 -23.5q-83 0 -143 19t-123 61q-11 7 -16 15zM451 1210q30 46 109.5 78.5t172.5 32.5q71 0 146.5 -26t136.5 -76l-283 -199z" />
<glyph unicode="9" horiz-adv-x="1507" d="M123 514h946v-199h-905v-315h1220v1147q0 139 -90.5 249t-233 167t-306.5 57q-166 0 -309 -57.5t-232.5 -167t-89.5 -248.5v-633zM438 809v338q0 44 52.5 81.5t124.5 57t139 19.5q72 0 144 -20t121.5 -57t49.5 -81v-338h-631z" />
<glyph unicode="=" horiz-adv-x="1269" d="M82 397h1106v316h-1106v-316zM82 870h1106v316h-1106v-316z" />
<glyph unicode="?" horiz-adv-x="1384" d="M41 1106h315q0 42 68 92q101 66 248 66t248 -66q8 -8 20 -16l18 -19l-444 -325v-365h315v205l474 348v80q0 112 -62 207q-56 88 -147 147q-180 119 -422 119t-422 -119q-93 -60 -148 -147q-61 -94 -61 -207zM514 0h315v315h-315v-315z" />
<glyph unicode="A" d="M0 0h344l135 315l832 -315h342l-674 1579h-303zM614 631l213 499l303 -702z" />
<glyph unicode="B" horiz-adv-x="1531" d="M123 0h774q112 0 214.5 44t176.5 118t118 176.5t44 214.5q0 173 -95 311.5t-251 200.5l125 219v295h-1106v-1579zM438 532v256h146zM438 1106v158h416l-90 -158h-326zM678 315l266 469q83 -17 137 -81.5t54 -149.5q0 -98 -70 -168t-168 -70h-219z" />
<glyph unicode="C" horiz-adv-x="1523" d="M82 788q0 -237 104 -426t292 -296t425 -107q165 0 313.5 61t266.5 179l-223 223q-86 -86 -199 -123v981q116 -40 199 -123l223 223q-117 117 -268 178.5t-312 61.5q-178 0 -330.5 -61t-260.5 -170t-169 -264t-61 -337zM422 631h323v-332q-250 76 -323 332zM422 948 q27 124 113.5 211.5t209.5 120.5v-332h-323z" />
<glyph unicode="D" horiz-adv-x="1642" d="M123 0h647q159 0 305 61.5t254 169.5q111 111 171.5 254t60.5 303q0 162 -60.5 305.5t-171.5 254.5q-114 111 -257 171t-302 60h-647v-539l719 -718q-40 -7 -72 -7h-332v316h-315v-631zM438 1171v93h332q96 0 183 -37t153 -103t102.5 -152.5t36.5 -183.5 q0 -174 -117 -307z" />
<glyph unicode="E" horiz-adv-x="1392" d="M123 0h1208l-416 631h314v317h-520l-209 316h790v315h-1167v-315l207 -316h-207v-948zM438 315v316h101l206 -316h-307z" />
<glyph unicode="F" horiz-adv-x="1351" d="M123 0h315v631h789v317h-518l-209 316h790v315h-1167v-315l207 -316h-207v-948z" />
<glyph unicode="G" horiz-adv-x="1806" d="M82 788q0 -177 61 -329.5t168.5 -260t260.5 -168.5t331 -61t331 61t260.5 168.5t168.5 260t61 329.5v160h-1300q43 166 167 258t312 92q218 0 359 -141l221 213q-113 116 -264 178t-316 62q-238 0 -425 -104.5t-291.5 -292t-104.5 -425.5zM422 631h323v-322 q-129 25 -213.5 109t-109.5 213zM1061 309v322h321q-24 -115 -112.5 -206.5t-208.5 -115.5z" />
<glyph unicode="H" horiz-adv-x="1572" d="M123 0h315v158h697v-158h315v1579h-315v-631h-697v631h-315v-1579zM438 473v158h191v-158h-191zM944 473v158h191v-158h-191z" />
<glyph unicode="I" horiz-adv-x="835" d="M102 0h631v315h-158v473h158v318h-158v158h158v315h-631v-315h158v-158h-158v-318h158v-473h-158v-315z" />
<glyph unicode="J" horiz-adv-x="1331" d="M102 0h570q155 0 278.5 72t190.5 194t67 271v1042h-1106v-315h117l674 -705q0 -115 -59.5 -179.5t-161.5 -64.5h-254v318h-316v-633zM610 1264h283v-283z" />
<glyph unicode="K" horiz-adv-x="1458" d="M123 0h315l305 338l295 -338h420l-690 791l690 788h-403l-482 -567l-135 153v414h-315v-1579zM438 416v270l119 -135z" />
<glyph unicode="L" horiz-adv-x="1290" d="M123 0h1106v315h-123l-668 676v588h-315v-1579zM438 315v283l283 -283h-283z" />
<glyph unicode="M" horiz-adv-x="1824" d="M123 0h317v942l291 -502l-256 -440h365l73 127l74 -127h365l-256 440l290 502v-942h316v1579h-311l-478 -823l-477 823h-313v-1579z" />
<glyph unicode="N" horiz-adv-x="1634" d="M123 0h315l432 446l324 -446h317v1579h-315v-1042l-758 1042h-315v-1579zM438 459v583l246 -337z" />
<glyph unicode="O" horiz-adv-x="1806" d="M82 788q0 -169 65 -322.5t174.5 -264.5t261.5 -176.5t320 -65.5q170 0 323 66t262 177.5t172.5 264.5t63.5 321q0 171 -64.5 325t-174 265t-262 176.5t-320.5 65.5q-136 0 -262.5 -42.5t-227 -119.5t-175.5 -179.5t-115.5 -229t-40.5 -261.5zM397 788q0 115 56 230 l677 -690q-105 -54 -227 -54q-135 0 -252 70.5t-185.5 189t-68.5 254.5zM676 1251q105 54 227 54q138 0 254.5 -70t184 -189t67.5 -258q0 -114 -55 -227z" />
<glyph unicode="P" horiz-adv-x="1515" d="M123 0h315v473h443q112 0 214.5 44t176.5 118t118 176.5t44 214.5t-44 214.5t-118 176.5t-176.5 118t-214.5 44h-758v-305l362 -486h-362v-788zM526 1264h355q98 0 167.5 -70t69.5 -168t-69.5 -168t-167.5 -70z" />
<glyph unicode="Q" horiz-adv-x="1916" d="M82 788q0 -163 63 -313t179 -266q110 -115 260.5 -177.5t318.5 -62.5q171 0 320 64q96 45 139 76l108 -109h447l-332 332q28 39 76 137q63 152 63 319q0 162 -63 322q-67 149 -179.5 262t-258.5 174q-149 64 -320 64q-168 0 -318.5 -62.5t-260.5 -177.5 q-116 -116 -179 -266.5t-63 -315.5zM397 788q0 115 56 230l677 -680q-103 -53 -227 -53q-102 0 -194.5 39t-161.5 108q-70 69 -110 161.5t-40 194.5zM676 1241q103 53 227 53q102 0 195 -39t164 -108q69 -71 108 -164t39 -195q0 -114 -55 -227z" />
<glyph unicode="R" horiz-adv-x="1531" d="M123 0h315v473h279l358 -473h395l-387 512q156 58 253.5 201.5t97.5 312.5q0 112 -44 214.5t-118 176.5t-176.5 118t-214.5 44h-758v-322l354 -469h-354v-788zM514 1264h367q96 0 165.5 -70.5t69.5 -167.5t-69.5 -167.5t-165.5 -70.5h-9z" />
<glyph unicode="S" horiz-adv-x="1425" d="M82 432q0 -140 92 -250t234.5 -166.5t304.5 -56.5q166 0 309 58t232 167.5t89 247.5v80l-917 694q51 51 128.5 75t158.5 24q72 0 144 -20t121.5 -57t49.5 -81v-31h315v31q0 139 -90.5 249t-233 167t-306.5 57q-166 0 -309 -57.5t-232.5 -167t-89.5 -248.5v-80l917 -694 q-99 -99 -286 -99q-72 0 -144 20t-122 57t-50 81v31h-315v-31z" />
<glyph unicode="T" horiz-adv-x="1417" d="M61 1264h490v-158h-426v-318h426v-788h315v788h426v318h-426v158h490v315h-1295v-315z" />
<glyph unicode="U" horiz-adv-x="1562" d="M102 637q0 -138 53.5 -263.5t144.5 -216.5t217 -144.5t265 -53.5q188 0 344.5 92t245 247.5t88.5 338.5v942h-315v-737l-725 737h-318v-942zM420 637v526l698 -682q-78 -207 -336 -207q-150 0 -256 106t-106 257z" />
<glyph unicode="V" d="M0 1579l676 -1579h303l674 1579h-342l-135 -315l-832 315h-344zM524 1151l516 -203l-213 -499z" />
<glyph unicode="W" horiz-adv-x="1824" d="M123 0h313l477 823l478 -823h311v1579h-316v-944l-290 504l256 440h-365l-74 -127l-73 127h-365l256 -440l-291 -504v944h-317v-1579z" />
<glyph unicode="X" horiz-adv-x="1433" d="M0 0h1434l-527 788l527 791h-1434l526 -791zM590 315l127 189l125 -189h-252zM590 1264h252l-125 -191z" />
<glyph unicode="Y" horiz-adv-x="1558" d="M0 1579l623 -932v-647h315v647l621 932h-1559zM592 1264h377l-189 -285z" />
<glyph unicode="Z" horiz-adv-x="1548" d="M61 0h1352v631h-315v-316h-449l838 1264h-1337v-631h317v316h432z" />
<glyph unicode="`" horiz-adv-x="913" d="M205 1675h205l299 316h-246z" />
<glyph unicode="a" d="M0 0h344l483 1130l484 -1130h342l-674 1579h-303z" />
<glyph unicode="b" horiz-adv-x="1531" d="M123 0h774q112 0 214.5 44t176.5 118t118 176.5t44 214.5q0 224 -155 384t-382 169v473h-790v-1579zM438 315v473h459q99 0 168.5 -68t69.5 -167q0 -98 -70 -168t-168 -70h-459zM438 1106v178h178v-178h-178z" />
<glyph unicode="c" horiz-adv-x="1626" d="M82 788q0 -170 65 -324t175 -264.5t262 -175.5t319 -65q206 0 389 97t293 266l-909 929q105 54 221 54q41 0 84 -7q164 -26 279 -141l225 223q-117 117 -266.5 178.5t-315.5 61.5q-168 0 -320 -65t-261.5 -176t-174.5 -265.5t-65 -325.5zM397 788q0 134 56 240l677 -700 q-111 -54 -227 -54q-140 0 -256.5 69.5t-183 187.5t-66.5 257z" />
<glyph unicode="d" horiz-adv-x="1642" d="M123 0h647q159 0 305 62t252.5 167t170 251.5t63.5 307.5q0 162 -63.5 309.5t-170.5 252.5t-252.5 167t-304.5 62h-647v-948h1094q-53 -146 -175 -231t-272 -85h-332v158h-315v-473zM438 948v316h332q153 0 273.5 -85.5t173.5 -230.5h-779z" />
<glyph unicode="e" horiz-adv-x="1351" d="M123 0h1167v315h-852v111h789v315h-789v97h789v315h-789v111h852v315h-1167v-1579z" />
<glyph unicode="f" horiz-adv-x="1351" d="M123 0h315v426h789v315h-789v97h789v315h-789v111h852v315h-1167v-1579z" />
<glyph unicode="g" horiz-adv-x="1806" d="M82 788q0 -171 64.5 -325t174 -264.5t261.5 -175t321 -64.5q170 0 322.5 66t261.5 177.5t173 264.5t64 321v160h-663v332q113 -40 199 -123l223 223q-118 118 -267.5 179t-312.5 61q-137 0 -263 -42t-226.5 -118.5t-175.5 -179t-115.5 -229.5t-40.5 -263zM397 791 q0 167 98 303t250 186v-981q-158 53 -253 190.5t-95 301.5zM1061 299v332h321q-35 -119 -121 -207t-200 -125z" />
<glyph unicode="h" horiz-adv-x="1572" d="M123 0h315v158h697v-158h315v1579h-315v-631h-697v631h-315v-1579zM438 473v158h697v-158h-697z" />
<glyph unicode="i" horiz-adv-x="835" d="M102 0h631v315h-158v949h158v315h-631v-315h158v-949h-158v-315z" />
<glyph unicode="j" horiz-adv-x="1331" d="M102 0h570q227 0 379 158q157 151 157 379v1042h-1106v-315h791v-727q0 -90 -66 -156t-155 -66h-254v316h-316v-631z" />
<glyph unicode="k" horiz-adv-x="1458" d="M123 0h315v414l119 135l481 -549h420l-690 788l690 791h-420l-295 -338l-305 338h-315v-1579zM438 893v272l119 -135z" />
<glyph unicode="l" horiz-adv-x="1290" d="M123 0h1106v631h-316v-316h-475v1264h-315v-1579z" />
<glyph unicode="m" horiz-adv-x="1824" d="M123 0h317v1155l316 -278v-877h315v877l315 278v-1155h316v1579h-311l-320 -283v283h-315v-283l-320 283h-313v-1579z" />
<glyph unicode="n" horiz-adv-x="1634" d="M123 0h1388v1579h-315v-1042l-758 1042h-315v-1579zM438 315v727l527 -727h-527z" />
<glyph unicode="o" horiz-adv-x="1806" d="M82 788q0 -169 65 -322.5t174.5 -264.5t261.5 -176.5t320 -65.5q170 0 322.5 66t261.5 177.5t173 264.5t64 321q0 171 -64.5 325t-174 265t-262 176.5t-320.5 65.5q-136 0 -262.5 -42.5t-227 -119.5t-175.5 -179.5t-115.5 -229t-40.5 -261.5zM397 788q0 141 68 260 t184.5 188t253.5 69q139 0 255 -68t183.5 -187t67.5 -262q0 -109 -41 -205.5t-110 -163.5t-161.5 -106t-193.5 -39q-136 0 -252.5 68t-185 186.5t-68.5 259.5z" />
<glyph unicode="p" horiz-adv-x="1515" d="M123 0h315v473h443q112 0 214.5 44t176.5 118t118 176.5t44 214.5t-44 214.5t-118 176.5t-176.5 118t-214.5 44h-758v-305l362 -486h-362v-788zM526 1264h355q98 0 167.5 -70t69.5 -168t-69.5 -168t-167.5 -70z" />
<glyph unicode="q" horiz-adv-x="1916" d="M82 788q0 -169 64.5 -322.5t174 -264.5t262 -176.5t320.5 -65.5q126 0 246.5 37t212.5 102l108 -108h447l-332 332q66 93 102.5 218t36.5 248q0 171 -64.5 325t-174 265t-262 176.5t-320.5 65.5q-136 0 -262.5 -42.5t-227 -119.5t-175.5 -179.5t-115.5 -229t-40.5 -261.5 zM397 788q0 125 56 240l213 -223l-224 -234q-45 99 -45 217zM657 338l232 233l241 -243q-105 -54 -227 -54q-136 0 -246 64zM676 1251q105 54 227 54q139 0 255 -68t183.5 -187t67.5 -262q0 -124 -55 -237z" />
<glyph unicode="r" horiz-adv-x="1531" d="M123 0h315v840l637 -840h395l-387 512q156 58 253.5 201.5t97.5 312.5q0 112 -44 214.5t-118 176.5t-176.5 118t-214.5 44h-758v-1579zM514 1264h367q96 0 165.5 -70.5t69.5 -167.5t-69.5 -167.5t-165.5 -70.5h-9z" />
<glyph unicode="s" horiz-adv-x="1425" d="M82 432q0 -148 90 -257.5t231 -162.5t310 -53q168 0 309.5 54t231 163.5t89.5 255.5v516h-946v189q0 54 53.5 94t123 57t139.5 17q74 0 144 -17t120.5 -54.5t50.5 -86.5v-31h315v31q0 139 -90.5 249t-233 167t-306.5 57q-166 0 -309 -57.5t-232.5 -167t-89.5 -248.5v-496 h946v-219q0 -51 -53 -88.5t-122.5 -53.5t-139.5 -16q-72 0 -144 20t-122 57t-50 81v31h-315v-31z" />
<glyph unicode="t" horiz-adv-x="1417" d="M61 948h316v316h174v-949h-158v-315h631v315h-158v949h174v-316h316v631h-1295v-631z" />
<glyph unicode="u" horiz-adv-x="1562" d="M102 637q0 -147 50.5 -273t140 -215t216 -139.5t273.5 -50.5t273 50.5t215 139.5t139.5 215t50.5 273v942h-520v-297h205v-645q0 -160 -101.5 -261.5t-261.5 -101.5t-261 101.5t-101 261.5v645h205v297h-523v-942z" />
<glyph unicode="v" d="M0 1579l676 -1579h303l674 1579h-1653zM479 1264h697l-349 -815z" />
<glyph unicode="w" horiz-adv-x="1824" d="M123 0h313l320 283v-283h315v283l320 -283h311v1579h-316v-1155l-315 278v877h-315v-877l-316 -278v1155h-317v-1579z" />
<glyph unicode="x" horiz-adv-x="1433" d="M0 0h381l336 504l336 -504h381l-527 788l527 791h-381l-336 -506l-336 506h-381l526 -791z" />
<glyph unicode="y" horiz-adv-x="1558" d="M0 1579l590 -885l-463 -694h379l1053 1579h-379l-400 -600l-399 600h-381z" />
<glyph unicode="z" horiz-adv-x="1548" d="M61 0h1352v948h-344l418 631h-1337v-315h749l-209 -316h-477v-317h266zM649 315l209 316h240v-316h-449z" />
<glyph unicode="&#xa8;" horiz-adv-x="2048" d="M668 1706h252v254h-252v-254zM1128 1706h252v254h-252v-254z" />
<glyph unicode="&#xad;" horiz-adv-x="954" d="M82 631h790v317h-790v-317z" />
<glyph unicode="&#xaf;" horiz-adv-x="1114" d="M205 1739h704v176h-704v-176z" />
<glyph unicode="&#xb4;" horiz-adv-x="921" d="M205 1675h219l299 316h-260z" />
<glyph unicode="&#xb7;" horiz-adv-x="520" d="M123 653h274v273h-274v-273z" />
<glyph unicode="&#xb8;" horiz-adv-x="866" d="M205 -463h258q89 0 144 52.5t55 142.5q0 81 -50.5 123.5t-150.5 42.5h-8l26 106h-131l-61 -227h176q19 0 30 -12.5t11 -32.5q0 -21 -11.5 -34t-29.5 -13h-217z" />
<glyph unicode="&#xc0;" d="M0 0h344l135 315l832 -315h342l-674 1579h-303zM614 631l213 499l303 -702zM684 1675h205l299 316h-246z" />
<glyph unicode="&#xc1;" d="M0 0h344l135 315l832 -315h342l-674 1579h-303zM614 631l213 499l303 -702zM684 1675h219l299 316h-260z" />
<glyph unicode="&#xc2;" d="M0 0h344l135 315l832 -315h342l-674 1579h-303zM424 1675l278 316h248l279 -316h-205l-197 191l-198 -191h-205zM614 631l213 499l303 -702z" />
<glyph unicode="&#xc3;" d="M0 0h344l135 315l832 -315h342l-674 1579h-303zM399 1769q41 118 140 170t217 9l188 -82q62 -22 105 5t65 89l131 -68q-40 -117 -139 -167.5t-217 -6.5l-189 82q-61 22 -104.5 -6.5t-65.5 -91.5zM614 631l213 499l303 -702z" />
<glyph unicode="&#xc4;" d="M0 0h344l135 315l832 -315h342l-674 1579h-303zM469 1706h252v254h-252v-254zM614 631l213 499l303 -702zM930 1706h252v254h-252v-254z" />
<glyph unicode="&#xc5;" d="M0 0l647 1491q-106 79 -106 215q0 118 83 197t203 79t203.5 -79.5t83.5 -196.5q0 -136 -106 -215l645 -1491h-342l-832 315l-135 -315h-344zM614 631l516 -203l-303 702zM670 1706q0 -65 45 -106t112 -41t112.5 41t45.5 106t-45.5 106t-112.5 41t-112 -41t-45 -106z" />
<glyph unicode="&#xc6;" horiz-adv-x="2179" d="M0 0h362l136 315l432 -163v-152h1188l-414 631h250v317h-459l-207 316h729v315h-1323zM633 631l297 692v-809zM1245 315v316h101l192 -316h-293z" />
<glyph unicode="&#xc7;" horiz-adv-x="1523" d="M82 788q0 182 61 337t169 264t260.5 170t330.5 61q161 0 312 -61.5t268 -178.5l-223 -223q-83 83 -199 123v-981q113 37 199 123l223 -223q-234 -234 -563 -240l-27 -102h8q100 0 150.5 -42.5t50.5 -123.5q0 -90 -55 -142.5t-144 -52.5h-258l41 148h217q18 0 29.5 13 t11.5 34q0 20 -11 32.5t-30 12.5h-176l61 229q-208 25 -368.5 136.5t-249 290t-88.5 396.5zM422 631q73 -256 323 -332v332h-323zM422 948h323v332q-123 -33 -209.5 -120.5t-113.5 -211.5z" />
<glyph unicode="&#xc8;" horiz-adv-x="1392" d="M123 0h1208l-416 631h314v317h-520l-209 316h790v315h-1167v-315l207 -316h-207v-948zM438 315v316h101l206 -316h-307zM563 1675h205l299 316h-246z" />
<glyph unicode="&#xc9;" horiz-adv-x="1392" d="M123 0h1208l-416 631h314v317h-520l-209 316h790v315h-1167v-315l207 -316h-207v-948zM438 315v316h101l206 -316h-307zM563 1675h219l299 316h-260z" />
<glyph unicode="&#xca;" horiz-adv-x="1392" d="M123 0h1208l-416 631h314v317h-520l-209 316h790v315h-1167v-315l207 -316h-207v-948zM303 1675l279 316h247l279 -316h-205l-196 191l-199 -191h-205zM438 315v316h101l206 -316h-307z" />
<glyph unicode="&#xcb;" horiz-adv-x="1392" d="M123 0h1208l-416 631h314v317h-520l-209 316h790v315h-1167v-315l207 -316h-207v-948zM348 1706h252v254h-252v-254zM438 315v316h101l206 -316h-307zM809 1706h252v254h-252v-254z" />
<glyph unicode="&#xcc;" horiz-adv-x="835" d="M102 0h631v315h-158v473h158v318h-158v158h158v315h-631v-315h158v-158h-158v-318h158v-473h-158v-315zM274 1675h205l299 316h-246z" />
<glyph unicode="&#xcd;" horiz-adv-x="835" d="M102 0h631v315h-158v473h158v318h-158v158h158v315h-631v-315h158v-158h-158v-318h158v-473h-158v-315zM274 1675h220l299 316h-261z" />
<glyph unicode="&#xce;" horiz-adv-x="835" d="M14 1675l279 316h248l278 -316h-205l-196 191l-199 -191h-205zM102 0h631v315h-158v473h158v318h-158v158h158v315h-631v-315h158v-158h-158v-318h158v-473h-158v-315z" />
<glyph unicode="&#xcf;" horiz-adv-x="835" d="M59 1706h252v254h-252v-254zM102 0h631v315h-158v473h158v318h-158v158h158v315h-631v-315h158v-158h-158v-318h158v-473h-158v-315zM520 1706h252v254h-252v-254z" />
<glyph unicode="&#xd0;" horiz-adv-x="1800" d="M123 651h158v-651h649q161 0 307 61q145 62 250 170q108 105 170 250q61 146 61 307q0 164 -61 310q-67 149 -170 250q-110 110 -254.5 170.5t-302.5 60.5h-649v-539l94 -92h-252v-297zM598 315v316h92l309 -309q-40 -7 -69 -7h-332zM598 1171v93h332q96 0 183 -37 t153 -103q137 -137 137 -336q0 -176 -115 -307z" />
<glyph unicode="&#xd1;" horiz-adv-x="1634" d="M123 0h315l432 446l324 -446h317v1579h-315v-1042l-758 1042h-315v-1579zM375 1769q41 118 139.5 170t216.5 9l189 -82q62 -22 105 5t65 89l131 -68q-40 -117 -139.5 -167.5t-217.5 -6.5l-188 82q-61 22 -104.5 -6.5t-65.5 -91.5zM438 459v583l246 -337z" />
<glyph unicode="&#xd2;" horiz-adv-x="1806" d="M82 788q0 -169 65 -322.5t174.5 -264.5t261.5 -176.5t320 -65.5q170 0 323 66t262 177.5t172.5 264.5t63.5 321q0 171 -64.5 325t-174 265t-262 176.5t-320.5 65.5q-136 0 -262.5 -42.5t-227 -119.5t-175.5 -179.5t-115.5 -229t-40.5 -261.5zM397 788q0 115 56 230 l677 -690q-105 -54 -227 -54q-135 0 -252 70.5t-185.5 189t-68.5 254.5zM676 1251q105 54 227 54q138 0 254.5 -70t184 -189t67.5 -258q0 -114 -55 -227zM750 1716h204l299 316h-245z" />
<glyph unicode="&#xd3;" horiz-adv-x="1806" d="M82 788q0 -169 65 -322.5t174.5 -264.5t261.5 -176.5t320 -65.5q170 0 323 66t262 177.5t172.5 264.5t63.5 321q0 171 -64.5 325t-174 265t-262 176.5t-320.5 65.5q-136 0 -262.5 -42.5t-227 -119.5t-175.5 -179.5t-115.5 -229t-40.5 -261.5zM397 788q0 115 56 230 l677 -690q-105 -54 -227 -54q-135 0 -252 70.5t-185.5 189t-68.5 254.5zM676 1251q105 54 227 54q138 0 254.5 -70t184 -189t67.5 -258q0 -114 -55 -227zM750 1716h219l299 316h-260z" />
<glyph unicode="&#xd4;" horiz-adv-x="1806" d="M82 788q0 -169 65 -322.5t174.5 -264.5t261.5 -176.5t320 -65.5q170 0 323 66t262 177.5t172.5 264.5t63.5 321q0 171 -64.5 325t-174 265t-262 176.5t-320.5 65.5q-136 0 -262.5 -42.5t-227 -119.5t-175.5 -179.5t-115.5 -229t-40.5 -261.5zM397 788q0 115 56 230 l677 -690q-105 -54 -227 -54q-135 0 -252 70.5t-185.5 189t-68.5 254.5zM489 1716l279 316h248l278 -316h-204l-197 191l-199 -191h-205zM676 1251q105 54 227 54q138 0 254.5 -70t184 -189t67.5 -258q0 -114 -55 -227z" />
<glyph unicode="&#xd5;" horiz-adv-x="1806" d="M82 788q0 -169 65 -322.5t174.5 -264.5t261.5 -176.5t320 -65.5q170 0 323 66t262 177.5t172.5 264.5t63.5 321q0 171 -64.5 325t-174 265t-262 176.5t-320.5 65.5q-136 0 -262.5 -42.5t-227 -119.5t-175.5 -179.5t-115.5 -229t-40.5 -261.5zM397 788q0 115 56 230 l677 -690q-105 -54 -227 -54q-135 0 -252 70.5t-185.5 189t-68.5 254.5zM465 1810q41 118 139.5 170t216.5 9l189 -82q62 -22 105 5t65 89l131 -68q-40 -117 -139.5 -167.5t-217.5 -6.5l-188 82q-61 22 -104.5 -6.5t-65.5 -91.5zM676 1251q105 54 227 54q138 0 254.5 -70 t184 -189t67.5 -258q0 -114 -55 -227z" />
<glyph unicode="&#xd6;" horiz-adv-x="1806" d="M82 788q0 -169 65 -322.5t174.5 -264.5t261.5 -176.5t320 -65.5q170 0 323 66t262 177.5t172.5 264.5t63.5 321q0 171 -64.5 325t-174 265t-262 176.5t-320.5 65.5q-136 0 -262.5 -42.5t-227 -119.5t-175.5 -179.5t-115.5 -229t-40.5 -261.5zM397 788q0 115 56 230 l677 -690q-105 -54 -227 -54q-135 0 -252 70.5t-185.5 189t-68.5 254.5zM535 1747h251v254h-251v-254zM676 1251q105 54 227 54q138 0 254.5 -70t184 -189t67.5 -258q0 -114 -55 -227zM995 1747h252v254h-252v-254z" />
<glyph unicode="&#xd8;" horiz-adv-x="1847" d="M82 -61l237 286q-103 112 -160 257.5t-57 305.5q0 169 64 322.5t173 265.5t262 178t323 66q242 0 442 -129l117 141h282l-233 -282q101 -112 157 -257t56 -305q0 -168 -63.5 -321t-172.5 -264.5t-262 -177.5t-323 -66q-239 0 -437 127l-122 -147h-283zM418 788 q0 -136 68.5 -254.5t185.5 -189t252 -70.5q122 0 227 54l-678 690q-55 -113 -55 -230zM696 1251l678 -690q56 115 56 227q0 139 -67.5 258t-184 189t-254.5 70q-123 0 -228 -54z" />
<glyph unicode="&#xd9;" horiz-adv-x="1562" d="M102 637q0 -138 53.5 -263.5t144.5 -216.5t217 -144.5t265 -53.5q188 0 344.5 92t245 247.5t88.5 338.5v942h-315v-737l-725 737h-318v-942zM420 637v526l698 -682q-78 -207 -336 -207q-150 0 -256 106t-106 257zM645 1675h205l299 316h-246z" />
<glyph unicode="&#xda;" horiz-adv-x="1562" d="M102 637q0 -138 53.5 -263.5t144.5 -216.5t217 -144.5t265 -53.5q188 0 344.5 92t245 247.5t88.5 338.5v942h-315v-737l-725 737h-318v-942zM420 637v526l698 -682q-78 -207 -336 -207q-150 0 -256 106t-106 257zM645 1675h219l299 316h-260z" />
<glyph unicode="&#xdb;" horiz-adv-x="1562" d="M102 637q0 -138 53.5 -263.5t144.5 -216.5t217 -144.5t265 -53.5q188 0 344.5 92t245 247.5t88.5 338.5v942h-315v-737l-725 737h-318v-942zM385 1675l279 316h247l279 -316h-205l-197 191l-198 -191h-205zM420 637v526l698 -682q-78 -207 -336 -207q-150 0 -256 106 t-106 257z" />
<glyph unicode="&#xdc;" horiz-adv-x="1562" d="M102 637q0 -138 53.5 -263.5t144.5 -216.5t217 -144.5t265 -53.5q188 0 344.5 92t245 247.5t88.5 338.5v942h-315v-737l-725 737h-318v-942zM420 637v526l698 -682q-78 -207 -336 -207q-150 0 -256 106t-106 257zM430 1706h252v254h-252v-254zM891 1706h252v254h-252 v-254z" />
<glyph unicode="&#xdd;" horiz-adv-x="1558" d="M0 1579l623 -932v-647h315v647l621 932h-1559zM592 1264h377l-189 -285zM639 1675h219l299 316h-260z" />
<glyph unicode="&#xde;" horiz-adv-x="1466" d="M123 0h473v315h315q196 0 336 140q137 140 137 333q0 196 -137 336q-140 140 -336 140h-315v315h-473v-315h158v-949h-158v-315zM596 631v317h315q66 0 112 -47t46 -113t-46 -111.5t-112 -45.5h-315z" />
<glyph unicode="&#xe0;" d="M0 0h344l483 1130l484 -1130h342l-674 1579h-303zM684 1675h205l299 316h-246z" />
<glyph unicode="&#xe1;" d="M0 0h344l483 1130l484 -1130h342l-674 1579h-303zM684 1675h219l299 316h-260z" />
<glyph unicode="&#xe2;" d="M0 0h344l483 1130l484 -1130h342l-674 1579h-303zM424 1675l278 316h248l279 -316h-205l-197 191l-198 -191h-205z" />
<glyph unicode="&#xe3;" d="M0 0h344l483 1130l484 -1130h342l-674 1579h-303zM399 1769q41 118 140 170t217 9l188 -82q62 -22 105 5t65 89l131 -68q-40 -117 -139 -167.5t-217 -6.5l-189 82q-61 22 -104.5 -6.5t-65.5 -91.5z" />
<glyph unicode="&#xe4;" d="M0 0h344l483 1130l484 -1130h342l-674 1579h-303zM469 1706h252v254h-252v-254zM930 1706h252v254h-252v-254z" />
<glyph unicode="&#xe5;" d="M0 0l645 1509q-49 38 -77.5 94.5t-28.5 122.5q0 118 83.5 197.5t202.5 79.5t203 -79.5t84 -197.5q0 -65 -28 -121t-76 -94l645 -1511h-342l-484 1130l-483 -1130h-344zM668 1726q0 -65 45 -106t112 -41t112.5 41t45.5 106t-45.5 106.5t-112.5 41.5t-112 -41.5t-45 -106.5 z" />
<glyph unicode="&#xe6;" horiz-adv-x="2138" d="M0 0h344l651 1284h35v-1284h1047v315h-731v111h667v315h-667v97h667v315h-667v111h731v315h-1299z" />
<glyph unicode="&#xe7;" horiz-adv-x="1626" d="M82 788q0 171 65 325.5t174.5 265.5t261.5 176t320 65q166 0 315.5 -61.5t266.5 -178.5l-225 -223q-115 115 -279 141q-163 26 -305 -47l909 -929q-105 -162 -277 -258t-368 -105l-25 -98h9q200 0 200 -166q0 -90 -54.5 -142.5t-143.5 -52.5h-258l41 148h217 q18 0 29.5 13t11.5 34q0 20 -11 32.5t-30 12.5h-176l61 225q-152 17 -286.5 87.5t-232 179t-154 253.5t-56.5 303zM397 788q0 -139 66.5 -257t183 -187.5t256.5 -69.5q116 0 227 54l-677 700q-56 -106 -56 -240z" />
<glyph unicode="&#xe8;" horiz-adv-x="1351" d="M123 0h1167v315h-852v111h789v315h-789v97h789v315h-789v111h852v315h-1167v-1579zM588 1675h205l299 316h-246z" />
<glyph unicode="&#xe9;" horiz-adv-x="1351" d="M123 0h1167v315h-852v111h789v315h-789v97h789v315h-789v111h852v315h-1167v-1579zM588 1675h219l299 316h-260z" />
<glyph unicode="&#xea;" horiz-adv-x="1351" d="M123 0h1167v315h-852v111h789v315h-789v97h789v315h-789v111h852v315h-1167v-1579zM328 1675l278 316h248l279 -316h-205l-197 191l-199 -191h-204z" />
<glyph unicode="&#xeb;" horiz-adv-x="1351" d="M123 0h1167v315h-852v111h789v315h-789v97h789v315h-789v111h852v315h-1167v-1579zM373 1706h252v254h-252v-254zM834 1706h251v254h-251v-254z" />
<glyph unicode="&#xec;" horiz-adv-x="835" d="M102 0h631v315h-158v949h158v315h-631v-315h158v-949h-158v-315zM274 1675h205l299 316h-246z" />
<glyph unicode="&#xed;" horiz-adv-x="835" d="M102 0h631v315h-158v949h158v315h-631v-315h158v-949h-158v-315zM274 1675h220l299 316h-261z" />
<glyph unicode="&#xee;" horiz-adv-x="835" d="M14 1675l279 316h248l278 -316h-205l-196 191l-199 -191h-205zM102 0h631v315h-158v949h158v315h-631v-315h158v-949h-158v-315z" />
<glyph unicode="&#xef;" horiz-adv-x="835" d="M59 1706h252v254h-252v-254zM102 0h631v315h-158v949h158v315h-631v-315h158v-949h-158v-315zM520 1706h252v254h-252v-254z" />
<glyph unicode="&#xf0;" horiz-adv-x="1800" d="M123 631h1251q-53 -144 -168 -225q-125 -91 -278 -91h-332v158h-315v-473h647q159 0 305 61.5t254 169.5q111 111 171 254t60 303q0 169 -63 310q-58 140 -168 250q-114 111 -257 171t-302 60h-647v-631h-158v-317zM596 948v316h332q153 0 278 -88q115 -84 168 -228h-778 z" />
<glyph unicode="&#xf1;" horiz-adv-x="1634" d="M123 0h1388v1579h-315v-1042l-758 1042h-315v-1579zM389 1769q41 118 139.5 170t216.5 9l189 -82q62 -22 105 5t65 89l131 -68q-40 -117 -139 -167.5t-217 -6.5l-189 82q-61 22 -104.5 -6.5t-65.5 -91.5zM438 315v727l527 -727h-527z" />
<glyph unicode="&#xf2;" horiz-adv-x="1806" d="M82 788q0 -169 65 -322.5t174.5 -264.5t261.5 -176.5t320 -65.5q170 0 322.5 66t261.5 177.5t173 264.5t64 321q0 171 -64.5 325t-174 265t-262 176.5t-320.5 65.5q-136 0 -262.5 -42.5t-227 -119.5t-175.5 -179.5t-115.5 -229t-40.5 -261.5zM397 788q0 141 68 260 t184.5 188t253.5 69q139 0 255 -68t183.5 -187t67.5 -262q0 -109 -41 -205.5t-110 -163.5t-161.5 -106t-193.5 -39q-136 0 -252.5 68t-185 186.5t-68.5 259.5zM760 1716h205l299 316h-246z" />
<glyph unicode="&#xf3;" horiz-adv-x="1806" d="M82 788q0 -169 65 -322.5t174.5 -264.5t261.5 -176.5t320 -65.5q170 0 322.5 66t261.5 177.5t173 264.5t64 321q0 171 -64.5 325t-174 265t-262 176.5t-320.5 65.5q-136 0 -262.5 -42.5t-227 -119.5t-175.5 -179.5t-115.5 -229t-40.5 -261.5zM397 788q0 141 68 260 t184.5 188t253.5 69q139 0 255 -68t183.5 -187t67.5 -262q0 -109 -41 -205.5t-110 -163.5t-161.5 -106t-193.5 -39q-136 0 -252.5 68t-185 186.5t-68.5 259.5zM760 1716h219l299 316h-260z" />
<glyph unicode="&#xf4;" horiz-adv-x="1806" d="M82 788q0 -169 65 -322.5t174.5 -264.5t261.5 -176.5t320 -65.5q170 0 322.5 66t261.5 177.5t173 264.5t64 321q0 171 -64.5 325t-174 265t-262 176.5t-320.5 65.5q-136 0 -262.5 -42.5t-227 -119.5t-175.5 -179.5t-115.5 -229t-40.5 -261.5zM397 788q0 141 68 260 t184.5 188t253.5 69q139 0 255 -68t183.5 -187t67.5 -262q0 -109 -41 -205.5t-110 -163.5t-161.5 -106t-193.5 -39q-136 0 -252.5 68t-185 186.5t-68.5 259.5zM500 1716l278 316h248l279 -316h-205l-197 191l-198 -191h-205z" />
<glyph unicode="&#xf5;" horiz-adv-x="1806" d="M82 788q0 -169 65 -322.5t174.5 -264.5t261.5 -176.5t320 -65.5q170 0 322.5 66t261.5 177.5t173 264.5t64 321q0 171 -64.5 325t-174 265t-262 176.5t-320.5 65.5q-136 0 -262.5 -42.5t-227 -119.5t-175.5 -179.5t-115.5 -229t-40.5 -261.5zM397 788q0 141 68 260 t184.5 188t253.5 69q139 0 255 -68t183.5 -187t67.5 -262q0 -109 -41 -205.5t-110 -163.5t-161.5 -106t-193.5 -39q-136 0 -252.5 68t-185 186.5t-68.5 259.5zM475 1810q41 118 139.5 170t216.5 9l189 -82q62 -22 105 5t65 89l131 -68q-40 -117 -139 -167.5t-217 -6.5 l-189 82q-61 22 -104.5 -6.5t-65.5 -91.5z" />
<glyph unicode="&#xf6;" horiz-adv-x="1806" d="M82 788q0 -169 65 -322.5t174.5 -264.5t261.5 -176.5t320 -65.5q170 0 322.5 66t261.5 177.5t173 264.5t64 321q0 171 -64.5 325t-174 265t-262 176.5t-320.5 65.5q-136 0 -262.5 -42.5t-227 -119.5t-175.5 -179.5t-115.5 -229t-40.5 -261.5zM397 788q0 141 68 260 t184.5 188t253.5 69q139 0 255 -68t183.5 -187t67.5 -262q0 -109 -41 -205.5t-110 -163.5t-161.5 -106t-193.5 -39q-136 0 -252.5 68t-185 186.5t-68.5 259.5zM545 1747h252v254h-252v-254zM1006 1747h251v254h-251v-254z" />
<glyph unicode="&#xf8;" horiz-adv-x="1847" d="M82 -61l237 286q-103 112 -160 257.5t-57 305.5q0 169 64 322.5t173 265.5t262 178t323 66q242 0 442 -129l117 141h282l-233 -282q101 -112 157 -257t56 -305q0 -168 -64 -321t-173 -264.5t-261.5 -177.5t-322.5 -66q-237 0 -439 127l-120 -147h-283zM418 788 q0 -181 106 -315l639 772q-111 60 -239 60q-137 0 -253.5 -69t-184.5 -188t-68 -260zM690 332q110 -58 234 -58q101 0 193.5 39t161.5 106t110 163.5t41 205.5q0 173 -103 314z" />
<glyph unicode="&#xf9;" horiz-adv-x="1562" d="M102 637q0 -147 50.5 -273t140 -215t216 -139.5t273.5 -50.5t273 50.5t215 139.5t139.5 215t50.5 273v942h-520v-297h205v-645q0 -160 -101.5 -261.5t-261.5 -101.5t-261 101.5t-101 261.5v645h205v297h-523v-942zM643 1675h205l299 316h-246z" />
<glyph unicode="&#xfa;" horiz-adv-x="1562" d="M102 637q0 -147 50.5 -273t140 -215t216 -139.5t273.5 -50.5t273 50.5t215 139.5t139.5 215t50.5 273v942h-520v-297h205v-645q0 -160 -101.5 -261.5t-261.5 -101.5t-261 101.5t-101 261.5v645h205v297h-523v-942zM643 1675h219l299 316h-260z" />
<glyph unicode="&#xfb;" horiz-adv-x="1562" d="M102 637q0 -147 50.5 -273t140 -215t216 -139.5t273.5 -50.5t273 50.5t215 139.5t139.5 215t50.5 273v942h-520v-297h205v-645q0 -160 -101.5 -261.5t-261.5 -101.5t-261 101.5t-101 261.5v645h205v297h-523v-942zM383 1675l279 316h247l279 -316h-205l-197 191 l-198 -191h-205z" />
<glyph unicode="&#xfc;" horiz-adv-x="1562" d="M102 637q0 -147 50.5 -273t140 -215t216 -139.5t273.5 -50.5t273 50.5t215 139.5t139.5 215t50.5 273v942h-520v-297h205v-645q0 -160 -101.5 -261.5t-261.5 -101.5t-261 101.5t-101 261.5v645h205v297h-523v-942zM428 1706h252v254h-252v-254zM889 1706h252v254h-252 v-254z" />
<glyph unicode="&#xfd;" horiz-adv-x="1558" d="M0 1579l590 -885l-463 -694h379l1053 1579h-379l-400 -600l-399 600h-381zM631 1675h219l299 316h-260z" />
<glyph unicode="&#xff;" horiz-adv-x="1558" d="M0 1579l590 -885l-463 -694h379l1053 1579h-379l-400 -600l-399 600h-381zM416 1706h252v254h-252v-254zM877 1706h251v254h-251v-254z" />
<glyph unicode="&#x152;" horiz-adv-x="2260" d="M82 788q0 -166 65 -317.5t174.5 -261.5t261.5 -175t320 -65q112 0 227 31h1070l-416 631h270v297h-479l-207 336h750v315h-988q-115 31 -227 31q-169 0 -322 -66t-262 -177t-173 -262.5t-64 -316.5zM399 788q0 119 54 230l536 -539v-188q-40 -6 -86 -6q-137 0 -253 67.5 t-183.5 183.5t-67.5 252zM676 1241q109 53 227 53q46 0 86 -6l209 -360h-209zM1307 315v316h98l209 -316h-307z" />
<glyph unicode="&#x153;" horiz-adv-x="2158" d="M82 791q0 -178 61 -332.5t168.5 -264.5t260.5 -172.5t331 -62.5q89 0 227 43h967v315h-751v111h688v315h-688v95h688v317h-688v111h751v315h-967q-144 39 -227 39q-178 0 -331 -62.5t-260.5 -171.5t-168.5 -263t-61 -332zM399 791q0 223 141.5 364t362.5 141 q61 0 127 -16v-979q-55 -14 -127 -14q-221 0 -362.5 141.5t-141.5 362.5z" />
<glyph unicode="&#x178;" horiz-adv-x="1558" d="M0 1579l623 -932v-647h315v647l621 932h-1559zM424 1706h252v254h-252v-254zM592 1264h377l-189 -285zM885 1706h252v254h-252v-254z" />
<glyph unicode="&#x2c6;" horiz-adv-x="1173" d="M184 1675l279 316h248l278 -316h-205l-196 191l-199 -191h-205z" />
<glyph unicode="&#x2dc;" horiz-adv-x="1255" d="M205 1769q41 118 139.5 170t216.5 9l189 -82q62 -22 105 5t65 89l131 -68q-40 -117 -139.5 -167.5t-217.5 -6.5l-188 82q-61 22 -104.5 -6.5t-65.5 -91.5z" />
<glyph unicode="&#x2000;" horiz-adv-x="1016" />
<glyph unicode="&#x2001;" horiz-adv-x="2032" />
<glyph unicode="&#x2002;" horiz-adv-x="1016" />
<glyph unicode="&#x2003;" horiz-adv-x="2032" />
<glyph unicode="&#x2004;" horiz-adv-x="677" />
<glyph unicode="&#x2005;" horiz-adv-x="508" />
<glyph unicode="&#x2006;" horiz-adv-x="338" />
<glyph unicode="&#x2007;" horiz-adv-x="338" />
<glyph unicode="&#x2008;" horiz-adv-x="254" />
<glyph unicode="&#x2009;" horiz-adv-x="406" />
<glyph unicode="&#x200a;" horiz-adv-x="112" />
<glyph unicode="&#x2010;" horiz-adv-x="954" d="M82 631h790v317h-790v-317z" />
<glyph unicode="&#x2011;" horiz-adv-x="954" d="M82 631h790v317h-790v-317z" />
<glyph unicode="&#x2012;" horiz-adv-x="954" d="M82 631h790v317h-790v-317z" />
<glyph unicode="&#x2013;" horiz-adv-x="1269" d="M82 631h1106v317h-1106v-317z" />
<glyph unicode="&#x2014;" horiz-adv-x="1585" d="M82 631h1421v317h-1421v-317z" />
<glyph unicode="&#x202f;" horiz-adv-x="406" />
<glyph unicode="&#x205f;" horiz-adv-x="508" />
<glyph unicode="&#x25fc;" horiz-adv-x="1576" d="M0 0v1577h1577v-1577h-1577z" />
</font>
</defs>
</svg>
